# xmcd
#
# Track frame offsets:
#	150
#	22332
#	41689
#	57036
#	78253
#	96770
#	110338
#	124037
#	141756
#	156450
#	172089
#	189193
#
# Disc length: 2710 seconds
#
# Revision: 0
# Processed by: cddbd v1.5.1PL0 Copyright (c) Steve Scherf et al.
# Submitted via: dBpowerAMP V4.0
#
DISCID=9e0a940c
DTITLE=Alan Jackson  - Alan Jackson  What I Do 
DYEAR=2004
DGENRE=
TTITLE0=Alan Jackson-Burnin' the Honky Tonks Down  
TTITLE1=Alan Jackson-If French Fries Were Fat Free 
TTITLE2=Alan Jackson- Monday Morning Church   
TTITLE3=Alan Jackson-Rainy Day in June   
TTITLE4=Alan Jackson-Strong Enough  
TTITLE5=Alan Jackson-Talkin' Song Repair Blues 
TTITLE6=Alan Jackson-To Do What I Do [Live]  
TTITLE7=Alan Jackson-If Love Was a River  
TTITLE8=Alan Jackson-There Ya Go  
TTITLE9=Alan Jackson-USA Today  
TTITLE10=Alan Jackson-You Don't Have to Paint Me a Picture  
TTITLE11=Alan Jackson-Too Much of a Good Thing 
EXTD=Alan Jackson-Burnin' the Honky Tonks Down  \nAlan Jackson-If French Fries Were Fat Free \nAlan Jackson- Monday Morning Church   \nAlan Jackson-Rainy Day in June   \nAlan Jackson-Strong Enough  \nAlan Jackson-Talkin' Song Repair Blues \nAlan Jackson
EXTD=To Do What I Do [Live]  \nAlan Jackson-If Love Was a River  \nAlan Jackson-There Ya Go  \nAlan Jackson-USA Today \nAlan Jackson-You Don't Have to Paint Me a Picture  \nAlan Jackson-Too Much of a Good Thing  \n\n\nAlan Jackson  album What I Do 
EXTT0=
EXTT1=
EXTT2=
EXTT3=
EXTT4=
EXTT5=
EXTT6=
EXTT7=
EXTT8=
EXTT9=
EXTT10=
EXTT11=
PLAYORDER=
